<?xml version="1.0" encoding="UTF-8"?>
<svg xmlns="http://www.w3.org/2000/svg" onmouseup="{ if(window.parent.document.onmouseup) window.parent.document.onmouseup(arguments[0]);}" viewBox="0 0 36 36" height="384" width="384" xmlns:xlink="http://www.w3.org/1999/xlink"><defs><circle data-cppathid="10000" r="16" cy="18" cx="18" id="home-b"/><filter filterUnits="objectBoundingBox" y="-9.4%" x="-9.4%" height="118.8%" width="118.8%" id="home-a"><feOffset result="shadowOffsetOuter1" in="SourceAlpha"/><feGaussianBlur stdDeviation="1" result="shadowBlurOuter1" in="shadowOffsetOuter1"/><feComposite result="shadowBlurOuter1" operator="out" in2="SourceAlpha" in="shadowBlurOuter1"/><feColorMatrix values="0 0 0 0 0   0 0 0 0 0   0 0 0 0 0  0 0 0 0.5 0" in="shadowBlurOuter1"/></filter></defs><g fill-rule="evenodd" fill="none"><rect data-cppathid="10001" opacity="0" fill="#03FF00" height="128" width="128"/><use xlink:href="#home-b" filter="url(#home-a)" fill="#000"/><circle data-cppathid="10002" stroke-width="2" stroke-linejoin="square" stroke="#FFF" fill="#000" r="15" cy="18" cx="18"/><path data-cppathid="10003" d="M26.666,17.125 L18.375,8.834 C18.2755868,8.73446286 18.1406792,8.67853304 18,8.67853304 C17.8593208,8.67853304 17.7244132,8.73446286 17.625,8.834 L9.334,17.125 C9.23446286,17.2244132 9.17853304,17.3593208 9.17853304,17.5 C9.17853304,17.6406792 9.23446286,17.7755868 9.334,17.875 L10.313,18.854 C10.4069507,18.9477139 10.5343011,19.000237 10.667,19 L11,19 L11,23.5 C11,23.7761424 11.2238576,24 11.5,24 L15.5,24 C15.7761424,24 16,23.7761424 16,23.5 L16,18.5 C16,18.2238576 16.2238576,18 16.5,18 L19.5,18 C19.7761424,18 20,18.2238576 20,18.5 L20,23.5 C20,23.7761424 20.2238576,24 20.5,24 L24.5,24 C24.7761424,24 25,23.7761424 25,23.5 L25,19 L25.333,19 C25.4656989,19.000237 25.5930493,18.9477139 25.687,18.854 L26.666,17.875 C26.7655371,17.7755868 26.821467,17.6406792 26.821467,17.5 C26.821467,17.3593208 26.7655371,17.2244132 26.666,17.125 Z" fill-rule="nonzero" fill="#FFF"/></g></svg>